<?xml version="1.0" encoding="UTF-8" standalone="no"?>
<!DOCTYPE svg PUBLIC "-//W3C//DTD SVG 1.1//EN"
 "http://www.w3.org/Graphics/SVG/1.1/DTD/svg11.dtd">
<!-- Generated by graphviz version 2.40.1 (20161225.0304)
 -->
<!-- Pages: 1 -->
<svg width="688pt" height="332pt"
 viewBox="0.00 0.00 687.95 332.00" xmlns="http://www.w3.org/2000/svg" xmlns:xlink="http://www.w3.org/1999/xlink">
<g id="graph0" class="graph" transform="scale(1 1) rotate(0) translate(4 328)">
<polygon fill="#ffffff" stroke="transparent" points="-4,4 -4,-328 683.9527,-328 683.9527,4 -4,4"/>
<!-- &lt;BlockNode at 0x558b94e41b2a (size 35)&gt; -->
<g id="node1" class="node">
<title>&lt;BlockNode at 0x558b94e41b2a (size 35)&gt;</title>
<ellipse fill="none" stroke="#000000" cx="339.4763" cy="-306" rx="164.9595" ry="18"/>
<text text-anchor="middle" x="339.4763" y="-301.8" font-family="Times,serif" font-size="14.00" fill="#000000">&lt;BlockNode at 0x558b94e41b2a (size 35)&gt;</text>
</g>
<!-- &lt;BlockNode at 0x558b94e41b4d (size 11)&gt; -->
<g id="node2" class="node">
<title>&lt;BlockNode at 0x558b94e41b4d (size 11)&gt;</title>
<ellipse fill="none" stroke="#000000" cx="339.4763" cy="-234" rx="165.3051" ry="18"/>
<text text-anchor="middle" x="339.4763" y="-229.8" font-family="Times,serif" font-size="14.00" fill="#000000">&lt;BlockNode at 0x558b94e41b4d (size 11)&gt;</text>
</g>
<!-- &lt;BlockNode at 0x558b94e41b2a (size 35)&gt;&#45;&gt;&lt;BlockNode at 0x558b94e41b4d (size 11)&gt; -->
<g id="edge1" class="edge">
<title>&lt;BlockNode at 0x558b94e41b2a (size 35)&gt;&#45;&gt;&lt;BlockNode at 0x558b94e41b4d (size 11)&gt;</title>
<path fill="none" stroke="#000000" d="M339.4763,-287.8314C339.4763,-280.131 339.4763,-270.9743 339.4763,-262.4166"/>
<polygon fill="#000000" stroke="#000000" points="342.9764,-262.4132 339.4763,-252.4133 335.9764,-262.4133 342.9764,-262.4132"/>
</g>
<!-- &lt;BlockNode at 0x558b94e41b66 (size 21)&gt; -->
<g id="node3" class="node">
<title>&lt;BlockNode at 0x558b94e41b66 (size 21)&gt;</title>
<ellipse fill="none" stroke="#000000" cx="165.4763" cy="-162" rx="165.4527" ry="18"/>
<text text-anchor="middle" x="165.4763" y="-157.8" font-family="Times,serif" font-size="14.00" fill="#000000">&lt;BlockNode at 0x558b94e41b66 (size 21)&gt;</text>
</g>
<!-- &lt;BlockNode at 0x558b94e41b4d (size 11)&gt;&#45;&gt;&lt;BlockNode at 0x558b94e41b66 (size 21)&gt; -->
<g id="edge2" class="edge">
<title>&lt;BlockNode at 0x558b94e41b4d (size 11)&gt;&#45;&gt;&lt;BlockNode at 0x558b94e41b66 (size 21)&gt;</title>
<path fill="none" stroke="#000000" d="M297.3558,-216.5708C273.2761,-206.6068 242.8799,-194.0291 217.3396,-183.4607"/>
<polygon fill="#000000" stroke="#000000" points="218.3905,-180.1078 207.8121,-179.5182 215.714,-186.5759 218.3905,-180.1078"/>
</g>
<!-- &lt;BlockNode at 0x558b94e41b58 (size 12)&gt; -->
<g id="node4" class="node">
<title>&lt;BlockNode at 0x558b94e41b58 (size 12)&gt;</title>
<ellipse fill="none" stroke="#000000" cx="514.4763" cy="-162" rx="165.4527" ry="18"/>
<text text-anchor="middle" x="514.4763" y="-157.8" font-family="Times,serif" font-size="14.00" fill="#000000">&lt;BlockNode at 0x558b94e41b58 (size 12)&gt;</text>
</g>
<!-- &lt;BlockNode at 0x558b94e41b4d (size 11)&gt;&#45;&gt;&lt;BlockNode at 0x558b94e41b58 (size 12)&gt; -->
<g id="edge3" class="edge">
<title>&lt;BlockNode at 0x558b94e41b4d (size 11)&gt;&#45;&gt;&lt;BlockNode at 0x558b94e41b58 (size 12)&gt;</title>
<path fill="none" stroke="#000000" d="M381.8389,-216.5708C406.0571,-206.6068 436.6279,-194.0291 462.315,-183.4607"/>
<polygon fill="#000000" stroke="#000000" points="463.9811,-186.5599 471.8973,-179.5182 461.3177,-180.0864 463.9811,-186.5599"/>
</g>
<!-- &lt;BlockNode at 0x558b94e41b7b (size 12)&gt; -->
<g id="node5" class="node">
<title>&lt;BlockNode at 0x558b94e41b7b (size 12)&gt;</title>
<ellipse fill="none" stroke="#000000" cx="167.4763" cy="-90" rx="165.4527" ry="18"/>
<text text-anchor="middle" x="167.4763" y="-85.8" font-family="Times,serif" font-size="14.00" fill="#000000">&lt;BlockNode at 0x558b94e41b7b (size 12)&gt;</text>
</g>
<!-- &lt;BlockNode at 0x558b94e41b66 (size 21)&gt;&#45;&gt;&lt;BlockNode at 0x558b94e41b7b (size 12)&gt; -->
<g id="edge4" class="edge">
<title>&lt;BlockNode at 0x558b94e41b66 (size 21)&gt;&#45;&gt;&lt;BlockNode at 0x558b94e41b7b (size 12)&gt;</title>
<path fill="none" stroke="#000000" d="M165.981,-143.8314C166.1949,-136.131 166.4493,-126.9743 166.687,-118.4166"/>
<polygon fill="#000000" stroke="#000000" points="170.1857,-118.5066 166.9649,-108.4133 163.1884,-118.3122 170.1857,-118.5066"/>
</g>
<!-- &lt;BlockNode at 0x558b94e41b64 (size 2)&gt; -->
<g id="node6" class="node">
<title>&lt;BlockNode at 0x558b94e41b64 (size 2)&gt;</title>
<ellipse fill="none" stroke="#000000" cx="513.4763" cy="-90" rx="161.1092" ry="18"/>
<text text-anchor="middle" x="513.4763" y="-85.8" font-family="Times,serif" font-size="14.00" fill="#000000">&lt;BlockNode at 0x558b94e41b64 (size 2)&gt;</text>
</g>
<!-- &lt;BlockNode at 0x558b94e41b58 (size 12)&gt;&#45;&gt;&lt;BlockNode at 0x558b94e41b64 (size 2)&gt; -->
<g id="edge5" class="edge">
<title>&lt;BlockNode at 0x558b94e41b58 (size 12)&gt;&#45;&gt;&lt;BlockNode at 0x558b94e41b64 (size 2)&gt;</title>
<path fill="none" stroke="#000000" d="M514.224,-143.8314C514.117,-136.131 513.9899,-126.9743 513.871,-118.4166"/>
<polygon fill="#000000" stroke="#000000" points="517.3707,-118.3637 513.7321,-108.4133 510.3714,-118.4609 517.3707,-118.3637"/>
</g>
<!-- &lt;BlockNode at 0x558b94e41b87 (size 2)&gt; -->
<g id="node7" class="node">
<title>&lt;BlockNode at 0x558b94e41b87 (size 2)&gt;</title>
<ellipse fill="none" stroke="#000000" cx="339.4763" cy="-18" rx="161.1092" ry="18"/>
<text text-anchor="middle" x="339.4763" y="-13.8" font-family="Times,serif" font-size="14.00" fill="#000000">&lt;BlockNode at 0x558b94e41b87 (size 2)&gt;</text>
</g>
<!-- &lt;BlockNode at 0x558b94e41b7b (size 12)&gt;&#45;&gt;&lt;BlockNode at 0x558b94e41b87 (size 2)&gt; -->
<g id="edge6" class="edge">
<title>&lt;BlockNode at 0x558b94e41b7b (size 12)&gt;&#45;&gt;&lt;BlockNode at 0x558b94e41b87 (size 2)&gt;</title>
<path fill="none" stroke="#000000" d="M209.1127,-72.5708C233.0038,-62.5699 263.1851,-49.9358 288.4895,-39.3433"/>
<polygon fill="#000000" stroke="#000000" points="290.0527,-42.4833 297.9256,-35.3933 287.3497,-36.0262 290.0527,-42.4833"/>
</g>
<!-- &lt;BlockNode at 0x558b94e41b64 (size 2)&gt;&#45;&gt;&lt;BlockNode at 0x558b94e41b87 (size 2)&gt; -->
<g id="edge7" class="edge">
<title>&lt;BlockNode at 0x558b94e41b64 (size 2)&gt;&#45;&gt;&lt;BlockNode at 0x558b94e41b87 (size 2)&gt;</title>
<path fill="none" stroke="#000000" d="M471.3558,-72.5708C447.1869,-62.5699 416.6546,-49.9358 391.056,-39.3433"/>
<polygon fill="#000000" stroke="#000000" points="392.0886,-35.9828 381.5102,-35.3933 389.4121,-42.451 392.0886,-35.9828"/>
</g>
</g>
</svg>
